<svg width="1024" height="115" viewBox="0 0 1024 115" fill="none" xmlns="http://www.w3.org/2000/svg">
<path fill-rule="evenodd" clip-rule="evenodd" d="M1024 0.363647L981.333 15.2239C938.667 30.0842 853.333 59.8047 768 61.9276C682.667 64.0505 597.333 38.5758 512 25.8384C426.667 13.101 341.333 13.101 256 17.3468C170.667 21.5926 85.3333 30.0842 42.6666 34.33L0 38.5758V115H42.6666C85.3333 115 170.667 115 256 115C341.333 115 426.667 115 512 115C597.333 115 682.667 115 768 115C853.333 115 938.667 115 981.333 115H1024V0.363647Z" fill="#3F3D56"/>
</svg>
